<mxfile host="app.diagrams.net" agent="Mozilla/5.0 (X11; Linux x86_64; rv:132.0) Gecko/20100101 Firefox/132.0" version="24.8.6">
  <diagram id="R2lEEEUBdFMjLlhIrx00" name="Page-1">
    <mxGraphModel dx="1622" dy="1074" grid="0" gridSize="10" guides="1" tooltips="1" connect="1" arrows="1" fold="1" page="0" pageScale="1" pageWidth="850" pageHeight="1100" background="#030303" math="0" shadow="0" extFonts="Permanent Marker^https://fonts.googleapis.com/css?family=Permanent+Marker">
      <root>
        <mxCell id="0" />
        <mxCell id="1" parent="0" />
        <mxCell id="bzM4wp5x5XGzccTKVfXO-14" value="&lt;b style=&quot;font-size: 14px;&quot;&gt;referrals&lt;/b&gt;" style="swimlane;fontStyle=0;childLayout=stackLayout;horizontal=1;startSize=30;horizontalStack=0;resizeParent=1;resizeParentMax=0;resizeLast=0;collapsible=1;marginBottom=0;whiteSpace=wrap;html=1;fontSize=14;strokeColor=#FFFFFF;" vertex="1" parent="1">
          <mxGeometry x="595" y="141" width="140" height="150" as="geometry" />
        </mxCell>
        <mxCell id="bzM4wp5x5XGzccTKVfXO-15" value="&lt;span&gt;ID&lt;/span&gt;" style="text;strokeColor=none;fillColor=none;align=left;verticalAlign=middle;spacingLeft=4;spacingRight=4;overflow=hidden;points=[[0,0.5],[1,0.5]];portConstraint=eastwest;rotatable=0;whiteSpace=wrap;html=1;fontColor=#FFFFFF;fontStyle=4" vertex="1" parent="bzM4wp5x5XGzccTKVfXO-14">
          <mxGeometry y="30" width="140" height="30" as="geometry" />
        </mxCell>
        <mxCell id="bzM4wp5x5XGzccTKVfXO-16" value="user_id" style="text;strokeColor=none;fillColor=none;align=left;verticalAlign=middle;spacingLeft=4;spacingRight=4;overflow=hidden;points=[[0,0.5],[1,0.5]];portConstraint=eastwest;rotatable=0;whiteSpace=wrap;html=1;fontColor=#FFFFFF;" vertex="1" parent="bzM4wp5x5XGzccTKVfXO-14">
          <mxGeometry y="60" width="140" height="30" as="geometry" />
        </mxCell>
        <mxCell id="bzM4wp5x5XGzccTKVfXO-20" value="referral_code" style="text;strokeColor=none;fillColor=none;align=left;verticalAlign=middle;spacingLeft=4;spacingRight=4;overflow=hidden;points=[[0,0.5],[1,0.5]];portConstraint=eastwest;rotatable=0;whiteSpace=wrap;html=1;fontColor=#FFFFFF;" vertex="1" parent="bzM4wp5x5XGzccTKVfXO-14">
          <mxGeometry y="90" width="140" height="30" as="geometry" />
        </mxCell>
        <mxCell id="bzM4wp5x5XGzccTKVfXO-19" value="referred_amount" style="text;strokeColor=none;fillColor=none;align=left;verticalAlign=middle;spacingLeft=4;spacingRight=4;overflow=hidden;points=[[0,0.5],[1,0.5]];portConstraint=eastwest;rotatable=0;whiteSpace=wrap;html=1;fontColor=#FFFFFF;" vertex="1" parent="bzM4wp5x5XGzccTKVfXO-14">
          <mxGeometry y="120" width="140" height="30" as="geometry" />
        </mxCell>
        <mxCell id="bzM4wp5x5XGzccTKVfXO-22" value="&lt;b&gt;users&lt;/b&gt;" style="swimlane;fontStyle=0;childLayout=stackLayout;horizontal=1;startSize=30;horizontalStack=0;resizeParent=1;resizeParentMax=0;resizeLast=0;collapsible=1;marginBottom=0;whiteSpace=wrap;html=1;fontSize=16;strokeColor=#FFFFFF;" vertex="1" parent="1">
          <mxGeometry x="217" y="81" width="140" height="420" as="geometry" />
        </mxCell>
        <mxCell id="bzM4wp5x5XGzccTKVfXO-23" value="&lt;span style=&quot;font-size: 14px;&quot;&gt;ID&lt;/span&gt;" style="text;strokeColor=none;fillColor=none;align=left;verticalAlign=middle;spacingLeft=4;spacingRight=4;overflow=hidden;points=[[0,0.5],[1,0.5]];portConstraint=eastwest;rotatable=0;whiteSpace=wrap;html=1;fontColor=#FFFFFF;fontSize=14;fontStyle=4" vertex="1" parent="bzM4wp5x5XGzccTKVfXO-22">
          <mxGeometry y="30" width="140" height="30" as="geometry" />
        </mxCell>
        <mxCell id="bzM4wp5x5XGzccTKVfXO-24" value="name" style="text;strokeColor=none;fillColor=none;align=left;verticalAlign=middle;spacingLeft=4;spacingRight=4;overflow=hidden;points=[[0,0.5],[1,0.5]];portConstraint=eastwest;rotatable=0;whiteSpace=wrap;html=1;fontColor=#FFFFFF;fontSize=14;" vertex="1" parent="bzM4wp5x5XGzccTKVfXO-22">
          <mxGeometry y="60" width="140" height="30" as="geometry" />
        </mxCell>
        <mxCell id="bzM4wp5x5XGzccTKVfXO-25" value="first_name" style="text;strokeColor=none;fillColor=none;align=center;verticalAlign=middle;spacingLeft=4;spacingRight=4;overflow=hidden;points=[[0,0.5],[1,0.5]];portConstraint=eastwest;rotatable=0;whiteSpace=wrap;html=1;fontColor=#FFFFFF;fontSize=14;" vertex="1" parent="bzM4wp5x5XGzccTKVfXO-22">
          <mxGeometry y="90" width="140" height="30" as="geometry" />
        </mxCell>
        <mxCell id="bzM4wp5x5XGzccTKVfXO-26" value="lastname" style="text;strokeColor=none;fillColor=none;align=center;verticalAlign=middle;spacingLeft=4;spacingRight=4;overflow=hidden;points=[[0,0.5],[1,0.5]];portConstraint=eastwest;rotatable=0;whiteSpace=wrap;html=1;fontColor=#FFFFFF;fontSize=14;" vertex="1" parent="bzM4wp5x5XGzccTKVfXO-22">
          <mxGeometry y="120" width="140" height="30" as="geometry" />
        </mxCell>
        <mxCell id="bzM4wp5x5XGzccTKVfXO-27" value="address" style="text;strokeColor=none;fillColor=none;align=left;verticalAlign=middle;spacingLeft=4;spacingRight=4;overflow=hidden;points=[[0,0.5],[1,0.5]];portConstraint=eastwest;rotatable=0;whiteSpace=wrap;html=1;fontColor=#FFFFFF;fontSize=14;" vertex="1" parent="bzM4wp5x5XGzccTKVfXO-22">
          <mxGeometry y="150" width="140" height="30" as="geometry" />
        </mxCell>
        <mxCell id="bzM4wp5x5XGzccTKVfXO-28" value="country" style="text;strokeColor=none;fillColor=none;align=center;verticalAlign=middle;spacingLeft=4;spacingRight=4;overflow=hidden;points=[[0,0.5],[1,0.5]];portConstraint=eastwest;rotatable=0;whiteSpace=wrap;html=1;fontColor=#FFFFFF;fontSize=14;" vertex="1" parent="bzM4wp5x5XGzccTKVfXO-22">
          <mxGeometry y="180" width="140" height="30" as="geometry" />
        </mxCell>
        <mxCell id="bzM4wp5x5XGzccTKVfXO-29" value="city" style="text;strokeColor=none;fillColor=none;align=center;verticalAlign=middle;spacingLeft=4;spacingRight=4;overflow=hidden;points=[[0,0.5],[1,0.5]];portConstraint=eastwest;rotatable=0;whiteSpace=wrap;html=1;fontColor=#FFFFFF;fontSize=14;" vertex="1" parent="bzM4wp5x5XGzccTKVfXO-22">
          <mxGeometry y="210" width="140" height="30" as="geometry" />
        </mxCell>
        <mxCell id="bzM4wp5x5XGzccTKVfXO-30" value="full_address" style="text;strokeColor=none;fillColor=none;align=center;verticalAlign=middle;spacingLeft=4;spacingRight=4;overflow=hidden;points=[[0,0.5],[1,0.5]];portConstraint=eastwest;rotatable=0;whiteSpace=wrap;html=1;fontColor=#FFFFFF;fontSize=14;" vertex="1" parent="bzM4wp5x5XGzccTKVfXO-22">
          <mxGeometry y="240" width="140" height="30" as="geometry" />
        </mxCell>
        <mxCell id="bzM4wp5x5XGzccTKVfXO-31" value="password" style="text;strokeColor=none;fillColor=none;align=left;verticalAlign=middle;spacingLeft=4;spacingRight=4;overflow=hidden;points=[[0,0.5],[1,0.5]];portConstraint=eastwest;rotatable=0;whiteSpace=wrap;html=1;fontColor=#FFFFFF;fontSize=14;" vertex="1" parent="bzM4wp5x5XGzccTKVfXO-22">
          <mxGeometry y="270" width="140" height="30" as="geometry" />
        </mxCell>
        <mxCell id="bzM4wp5x5XGzccTKVfXO-32" value="email" style="text;strokeColor=none;fillColor=none;align=left;verticalAlign=middle;spacingLeft=4;spacingRight=4;overflow=hidden;points=[[0,0.5],[1,0.5]];portConstraint=eastwest;rotatable=0;whiteSpace=wrap;html=1;fontColor=#FFFFFF;fontSize=14;" vertex="1" parent="bzM4wp5x5XGzccTKVfXO-22">
          <mxGeometry y="300" width="140" height="30" as="geometry" />
        </mxCell>
        <mxCell id="bzM4wp5x5XGzccTKVfXO-33" value="referred" style="text;strokeColor=none;fillColor=none;align=left;verticalAlign=middle;spacingLeft=4;spacingRight=4;overflow=hidden;points=[[0,0.5],[1,0.5]];portConstraint=eastwest;rotatable=0;whiteSpace=wrap;html=1;fontColor=#FFFFFF;fontSize=14;" vertex="1" parent="bzM4wp5x5XGzccTKVfXO-22">
          <mxGeometry y="330" width="140" height="30" as="geometry" />
        </mxCell>
        <mxCell id="bzM4wp5x5XGzccTKVfXO-54" value="2FA" style="text;strokeColor=none;fillColor=none;align=left;verticalAlign=middle;spacingLeft=4;spacingRight=4;overflow=hidden;points=[[0,0.5],[1,0.5]];portConstraint=eastwest;rotatable=0;whiteSpace=wrap;html=1;fontColor=#FFFFFF;fontSize=14;" vertex="1" parent="bzM4wp5x5XGzccTKVfXO-22">
          <mxGeometry y="360" width="140" height="30" as="geometry" />
        </mxCell>
        <mxCell id="bzM4wp5x5XGzccTKVfXO-55" value="tokens" style="text;strokeColor=none;fillColor=none;align=left;verticalAlign=middle;spacingLeft=4;spacingRight=4;overflow=hidden;points=[[0,0.5],[1,0.5]];portConstraint=eastwest;rotatable=0;whiteSpace=wrap;html=1;fontColor=#FFFFFF;fontSize=14;" vertex="1" parent="bzM4wp5x5XGzccTKVfXO-22">
          <mxGeometry y="390" width="140" height="30" as="geometry" />
        </mxCell>
        <mxCell id="bzM4wp5x5XGzccTKVfXO-34" value="have" style="rhombus;whiteSpace=wrap;html=1;fontSize=16;" vertex="1" parent="1">
          <mxGeometry x="424" y="159" width="110" height="114" as="geometry" />
        </mxCell>
        <mxCell id="bzM4wp5x5XGzccTKVfXO-37" value="transfer" style="rhombus;whiteSpace=wrap;html=1;fontSize=16;" vertex="1" parent="1">
          <mxGeometry x="-12" y="159" width="110" height="114" as="geometry" />
        </mxCell>
        <mxCell id="bzM4wp5x5XGzccTKVfXO-38" value="&lt;font style=&quot;font-size: 14px;&quot;&gt;&lt;b&gt;transactions&lt;/b&gt;&lt;/font&gt;" style="swimlane;fontStyle=0;childLayout=stackLayout;horizontal=1;startSize=30;horizontalStack=0;resizeParent=1;resizeParentMax=0;resizeLast=0;collapsible=1;marginBottom=0;whiteSpace=wrap;html=1;fontSize=14;strokeColor=#FFFFFF;" vertex="1" parent="1">
          <mxGeometry x="-27" y="329" width="140" height="210" as="geometry" />
        </mxCell>
        <mxCell id="bzM4wp5x5XGzccTKVfXO-39" value="&lt;u&gt;ID&lt;/u&gt;" style="text;strokeColor=none;fillColor=none;align=left;verticalAlign=middle;spacingLeft=4;spacingRight=4;overflow=hidden;points=[[0,0.5],[1,0.5]];portConstraint=eastwest;rotatable=0;whiteSpace=wrap;html=1;fontColor=#FFFFFF;" vertex="1" parent="bzM4wp5x5XGzccTKVfXO-38">
          <mxGeometry y="30" width="140" height="30" as="geometry" />
        </mxCell>
        <mxCell id="bzM4wp5x5XGzccTKVfXO-40" value="sender_id" style="text;strokeColor=none;fillColor=none;align=left;verticalAlign=middle;spacingLeft=4;spacingRight=4;overflow=hidden;points=[[0,0.5],[1,0.5]];portConstraint=eastwest;rotatable=0;whiteSpace=wrap;html=1;fontColor=#FFFFFF;" vertex="1" parent="bzM4wp5x5XGzccTKVfXO-38">
          <mxGeometry y="60" width="140" height="30" as="geometry" />
        </mxCell>
        <mxCell id="bzM4wp5x5XGzccTKVfXO-41" value="reciever_id" style="text;strokeColor=none;fillColor=none;align=left;verticalAlign=middle;spacingLeft=4;spacingRight=4;overflow=hidden;points=[[0,0.5],[1,0.5]];portConstraint=eastwest;rotatable=0;whiteSpace=wrap;html=1;fontColor=#FFFFFF;" vertex="1" parent="bzM4wp5x5XGzccTKVfXO-38">
          <mxGeometry y="90" width="140" height="30" as="geometry" />
        </mxCell>
        <mxCell id="bzM4wp5x5XGzccTKVfXO-42" value="transfered_amount" style="text;strokeColor=none;fillColor=none;align=left;verticalAlign=middle;spacingLeft=4;spacingRight=4;overflow=hidden;points=[[0,0.5],[1,0.5]];portConstraint=eastwest;rotatable=0;whiteSpace=wrap;html=1;fontColor=#FFFFFF;" vertex="1" parent="bzM4wp5x5XGzccTKVfXO-38">
          <mxGeometry y="120" width="140" height="30" as="geometry" />
        </mxCell>
        <mxCell id="bzM4wp5x5XGzccTKVfXO-43" value="purpose" style="text;strokeColor=none;fillColor=none;align=left;verticalAlign=middle;spacingLeft=4;spacingRight=4;overflow=hidden;points=[[0,0.5],[1,0.5]];portConstraint=eastwest;rotatable=0;whiteSpace=wrap;html=1;fontColor=#FFFFFF;" vertex="1" parent="bzM4wp5x5XGzccTKVfXO-38">
          <mxGeometry y="150" width="140" height="30" as="geometry" />
        </mxCell>
        <mxCell id="bzM4wp5x5XGzccTKVfXO-56" value="Date" style="text;strokeColor=none;fillColor=none;align=left;verticalAlign=middle;spacingLeft=4;spacingRight=4;overflow=hidden;points=[[0,0.5],[1,0.5]];portConstraint=eastwest;rotatable=0;whiteSpace=wrap;html=1;fontColor=#FFFFFF;" vertex="1" parent="bzM4wp5x5XGzccTKVfXO-38">
          <mxGeometry y="180" width="140" height="30" as="geometry" />
        </mxCell>
        <mxCell id="bzM4wp5x5XGzccTKVfXO-46" value="" style="endArrow=none;html=1;rounded=0;entryX=0;entryY=0.5;entryDx=0;entryDy=0;exitX=1;exitY=1;exitDx=0;exitDy=0;strokeColor=#FFFFFF;strokeWidth=5;" edge="1" parent="1" source="bzM4wp5x5XGzccTKVfXO-37" target="bzM4wp5x5XGzccTKVfXO-27">
          <mxGeometry width="50" height="50" relative="1" as="geometry">
            <mxPoint x="139" y="315" as="sourcePoint" />
            <mxPoint x="189" y="265" as="targetPoint" />
          </mxGeometry>
        </mxCell>
        <mxCell id="bzM4wp5x5XGzccTKVfXO-47" value="" style="endArrow=none;html=1;rounded=0;entryX=0;entryY=0.5;entryDx=0;entryDy=0;exitX=1;exitY=0;exitDx=0;exitDy=0;strokeColor=#FFFFFF;strokeWidth=5;" edge="1" parent="1" source="bzM4wp5x5XGzccTKVfXO-37" target="bzM4wp5x5XGzccTKVfXO-25">
          <mxGeometry width="50" height="50" relative="1" as="geometry">
            <mxPoint x="71" y="192" as="sourcePoint" />
            <mxPoint x="217" y="194" as="targetPoint" />
          </mxGeometry>
        </mxCell>
        <mxCell id="bzM4wp5x5XGzccTKVfXO-48" value="" style="endArrow=none;dashed=1;html=1;rounded=0;entryX=0.5;entryY=1;entryDx=0;entryDy=0;exitX=0.5;exitY=0;exitDx=0;exitDy=0;strokeColor=#FFFFFF;strokeWidth=5;" edge="1" parent="1" source="bzM4wp5x5XGzccTKVfXO-38" target="bzM4wp5x5XGzccTKVfXO-37">
          <mxGeometry width="50" height="50" relative="1" as="geometry">
            <mxPoint x="139" y="315" as="sourcePoint" />
            <mxPoint x="189" y="265" as="targetPoint" />
          </mxGeometry>
        </mxCell>
        <mxCell id="bzM4wp5x5XGzccTKVfXO-50" value="" style="endArrow=classic;html=1;rounded=0;strokeColor=#FFFFFF;strokeWidth=5;entryX=0;entryY=0.5;entryDx=0;entryDy=0;exitX=1;exitY=0.5;exitDx=0;exitDy=0;" edge="1" parent="1" source="bzM4wp5x5XGzccTKVfXO-34" target="bzM4wp5x5XGzccTKVfXO-16">
          <mxGeometry width="50" height="50" relative="1" as="geometry">
            <mxPoint x="471" y="337" as="sourcePoint" />
            <mxPoint x="535" y="299" as="targetPoint" />
          </mxGeometry>
        </mxCell>
        <mxCell id="bzM4wp5x5XGzccTKVfXO-51" value="" style="endArrow=classic;html=1;rounded=0;strokeColor=#FFFFFF;strokeWidth=5;entryX=1;entryY=0.5;entryDx=0;entryDy=0;exitX=0;exitY=0.5;exitDx=0;exitDy=0;" edge="1" parent="1" source="bzM4wp5x5XGzccTKVfXO-34" target="bzM4wp5x5XGzccTKVfXO-26">
          <mxGeometry width="50" height="50" relative="1" as="geometry">
            <mxPoint x="544" y="226" as="sourcePoint" />
            <mxPoint x="622" y="226" as="targetPoint" />
          </mxGeometry>
        </mxCell>
        <mxCell id="bzM4wp5x5XGzccTKVfXO-52" value="&lt;font style=&quot;font-size: 14px;&quot; color=&quot;#ffffff&quot;&gt;Make&lt;/font&gt;" style="text;html=1;align=center;verticalAlign=middle;whiteSpace=wrap;rounded=0;fontSize=14;" vertex="1" parent="1">
          <mxGeometry x="108" y="149" width="60" height="30" as="geometry" />
        </mxCell>
        <mxCell id="bzM4wp5x5XGzccTKVfXO-53" value="&lt;div style=&quot;font-size: 14px;&quot;&gt;&lt;font style=&quot;font-size: 14px;&quot; color=&quot;#ffffff&quot;&gt;receive&lt;/font&gt;&lt;br style=&quot;font-size: 14px;&quot;&gt;&lt;/div&gt;" style="text;html=1;align=center;verticalAlign=middle;whiteSpace=wrap;rounded=0;strokeWidth=2;fontSize=14;" vertex="1" parent="1">
          <mxGeometry x="108" y="205" width="60" height="30" as="geometry" />
        </mxCell>
        <mxCell id="bzM4wp5x5XGzccTKVfXO-57" value="make" style="rhombus;whiteSpace=wrap;html=1;fontSize=16;" vertex="1" parent="1">
          <mxGeometry x="232" y="-83" width="110" height="114" as="geometry" />
        </mxCell>
        <mxCell id="bzM4wp5x5XGzccTKVfXO-58" value="&lt;b&gt;recharges&lt;/b&gt;" style="swimlane;fontStyle=0;childLayout=stackLayout;horizontal=1;startSize=30;horizontalStack=0;resizeParent=1;resizeParentMax=0;resizeLast=0;collapsible=1;marginBottom=0;whiteSpace=wrap;html=1;fontSize=14;strokeColor=#FFFFFF;" vertex="1" parent="1">
          <mxGeometry x="22" y="-131" width="140" height="210" as="geometry" />
        </mxCell>
        <mxCell id="bzM4wp5x5XGzccTKVfXO-59" value="&lt;u&gt;ID&lt;/u&gt;" style="text;strokeColor=none;fillColor=none;align=left;verticalAlign=middle;spacingLeft=4;spacingRight=4;overflow=hidden;points=[[0,0.5],[1,0.5]];portConstraint=eastwest;rotatable=0;whiteSpace=wrap;html=1;fontColor=#FFFFFF;" vertex="1" parent="bzM4wp5x5XGzccTKVfXO-58">
          <mxGeometry y="30" width="140" height="30" as="geometry" />
        </mxCell>
        <mxCell id="bzM4wp5x5XGzccTKVfXO-60" value="user_id" style="text;strokeColor=none;fillColor=none;align=left;verticalAlign=middle;spacingLeft=4;spacingRight=4;overflow=hidden;points=[[0,0.5],[1,0.5]];portConstraint=eastwest;rotatable=0;whiteSpace=wrap;html=1;fontColor=#FFFFFF;" vertex="1" parent="bzM4wp5x5XGzccTKVfXO-58">
          <mxGeometry y="60" width="140" height="30" as="geometry" />
        </mxCell>
        <mxCell id="bzM4wp5x5XGzccTKVfXO-61" value="tokens_amount" style="text;strokeColor=none;fillColor=none;align=left;verticalAlign=middle;spacingLeft=4;spacingRight=4;overflow=hidden;points=[[0,0.5],[1,0.5]];portConstraint=eastwest;rotatable=0;whiteSpace=wrap;html=1;fontColor=#FFFFFF;" vertex="1" parent="bzM4wp5x5XGzccTKVfXO-58">
          <mxGeometry y="90" width="140" height="30" as="geometry" />
        </mxCell>
        <mxCell id="bzM4wp5x5XGzccTKVfXO-62" value="payment_amount" style="text;strokeColor=none;fillColor=none;align=left;verticalAlign=middle;spacingLeft=4;spacingRight=4;overflow=hidden;points=[[0,0.5],[1,0.5]];portConstraint=eastwest;rotatable=0;whiteSpace=wrap;html=1;fontColor=#FFFFFF;" vertex="1" parent="bzM4wp5x5XGzccTKVfXO-58">
          <mxGeometry y="120" width="140" height="30" as="geometry" />
        </mxCell>
        <mxCell id="bzM4wp5x5XGzccTKVfXO-63" value="status" style="text;strokeColor=none;fillColor=none;align=left;verticalAlign=middle;spacingLeft=4;spacingRight=4;overflow=hidden;points=[[0,0.5],[1,0.5]];portConstraint=eastwest;rotatable=0;whiteSpace=wrap;html=1;fontColor=#FFFFFF;" vertex="1" parent="bzM4wp5x5XGzccTKVfXO-58">
          <mxGeometry y="150" width="140" height="30" as="geometry" />
        </mxCell>
        <mxCell id="bzM4wp5x5XGzccTKVfXO-64" value="date" style="text;strokeColor=none;fillColor=none;align=left;verticalAlign=middle;spacingLeft=4;spacingRight=4;overflow=hidden;points=[[0,0.5],[1,0.5]];portConstraint=eastwest;rotatable=0;whiteSpace=wrap;html=1;fontColor=#FFFFFF;" vertex="1" parent="bzM4wp5x5XGzccTKVfXO-58">
          <mxGeometry y="180" width="140" height="30" as="geometry" />
        </mxCell>
        <mxCell id="bzM4wp5x5XGzccTKVfXO-65" value="" style="endArrow=none;html=1;rounded=0;entryX=0.5;entryY=1;entryDx=0;entryDy=0;exitX=0.5;exitY=0;exitDx=0;exitDy=0;strokeColor=#FFFFFF;strokeWidth=5;" edge="1" parent="1" source="bzM4wp5x5XGzccTKVfXO-22" target="bzM4wp5x5XGzccTKVfXO-57">
          <mxGeometry width="50" height="50" relative="1" as="geometry">
            <mxPoint x="286" y="51" as="sourcePoint" />
            <mxPoint x="336" y="1" as="targetPoint" />
          </mxGeometry>
        </mxCell>
        <mxCell id="bzM4wp5x5XGzccTKVfXO-66" value="" style="endArrow=classic;html=1;rounded=0;strokeColor=#FFFFFF;strokeWidth=5;entryX=1;entryY=0.5;entryDx=0;entryDy=0;exitX=0;exitY=0.5;exitDx=0;exitDy=0;" edge="1" parent="1" source="bzM4wp5x5XGzccTKVfXO-57" target="bzM4wp5x5XGzccTKVfXO-61">
          <mxGeometry width="50" height="50" relative="1" as="geometry">
            <mxPoint x="357" y="-69" as="sourcePoint" />
            <mxPoint x="418" y="-69" as="targetPoint" />
          </mxGeometry>
        </mxCell>
        <mxCell id="bzM4wp5x5XGzccTKVfXO-67" value="&lt;b&gt;products&lt;/b&gt;" style="swimlane;fontStyle=0;childLayout=stackLayout;horizontal=1;startSize=30;horizontalStack=0;resizeParent=1;resizeParentMax=0;resizeLast=0;collapsible=1;marginBottom=0;whiteSpace=wrap;html=1;fontSize=14;strokeColor=#FFFFFF;" vertex="1" parent="1">
          <mxGeometry x="-228" y="111" width="140" height="180" as="geometry" />
        </mxCell>
        <mxCell id="bzM4wp5x5XGzccTKVfXO-68" value="&lt;u&gt;ID&lt;/u&gt;" style="text;strokeColor=none;fillColor=none;align=left;verticalAlign=middle;spacingLeft=4;spacingRight=4;overflow=hidden;points=[[0,0.5],[1,0.5]];portConstraint=eastwest;rotatable=0;whiteSpace=wrap;html=1;fontColor=#FFFFFF;" vertex="1" parent="bzM4wp5x5XGzccTKVfXO-67">
          <mxGeometry y="30" width="140" height="30" as="geometry" />
        </mxCell>
        <mxCell id="bzM4wp5x5XGzccTKVfXO-69" value="name" style="text;strokeColor=none;fillColor=none;align=left;verticalAlign=middle;spacingLeft=4;spacingRight=4;overflow=hidden;points=[[0,0.5],[1,0.5]];portConstraint=eastwest;rotatable=0;whiteSpace=wrap;html=1;fontColor=#FFFFFF;" vertex="1" parent="bzM4wp5x5XGzccTKVfXO-67">
          <mxGeometry y="60" width="140" height="30" as="geometry" />
        </mxCell>
        <mxCell id="bzM4wp5x5XGzccTKVfXO-70" value="description" style="text;strokeColor=none;fillColor=none;align=left;verticalAlign=middle;spacingLeft=4;spacingRight=4;overflow=hidden;points=[[0,0.5],[1,0.5]];portConstraint=eastwest;rotatable=0;whiteSpace=wrap;html=1;fontColor=#FFFFFF;" vertex="1" parent="bzM4wp5x5XGzccTKVfXO-67">
          <mxGeometry y="90" width="140" height="30" as="geometry" />
        </mxCell>
        <mxCell id="bzM4wp5x5XGzccTKVfXO-71" value="tokens_price" style="text;strokeColor=none;fillColor=none;align=left;verticalAlign=middle;spacingLeft=4;spacingRight=4;overflow=hidden;points=[[0,0.5],[1,0.5]];portConstraint=eastwest;rotatable=0;whiteSpace=wrap;html=1;fontColor=#FFFFFF;" vertex="1" parent="bzM4wp5x5XGzccTKVfXO-67">
          <mxGeometry y="120" width="140" height="30" as="geometry" />
        </mxCell>
        <mxCell id="bzM4wp5x5XGzccTKVfXO-72" value="type" style="text;strokeColor=none;fillColor=none;align=left;verticalAlign=middle;spacingLeft=4;spacingRight=4;overflow=hidden;points=[[0,0.5],[1,0.5]];portConstraint=eastwest;rotatable=0;whiteSpace=wrap;html=1;fontColor=#FFFFFF;" vertex="1" parent="bzM4wp5x5XGzccTKVfXO-67">
          <mxGeometry y="150" width="140" height="30" as="geometry" />
        </mxCell>
        <mxCell id="bzM4wp5x5XGzccTKVfXO-74" value="" style="endArrow=classic;html=1;rounded=0;strokeColor=#FFFFFF;strokeWidth=5;entryX=1;entryY=0.433;entryDx=0;entryDy=0;exitX=0;exitY=0.5;exitDx=0;exitDy=0;entryPerimeter=0;" edge="1" parent="1" target="bzM4wp5x5XGzccTKVfXO-70">
          <mxGeometry width="50" height="50" relative="1" as="geometry">
            <mxPoint x="-12" y="215.23" as="sourcePoint" />
            <mxPoint x="-82" y="215.23" as="targetPoint" />
          </mxGeometry>
        </mxCell>
      </root>
    </mxGraphModel>
  </diagram>
</mxfile>
